<svg width="33" height="33" viewBox="0 0 33 33" fill="none" xmlns="http://www.w3.org/2000/svg">
<path d="M33 9.84602V9.8357H31.1815H31.1807V7.19867L30.0095 6.77063C27.9284 6.00951 25.746 5.62305 23.5194 5.62305C21.2927 5.62305 19.1104 6.00951 17.0293 6.77063L16.5 6.9638L15.9708 6.7707C13.8899 6.00957 11.7078 5.62311 9.48093 5.62311C7.25426 5.62311 5.07195 6.00957 2.99108 6.7707L1.81958 7.19873V9.82997V9.83577H0.0213984H0.0105703H0V25.6935C0 26.0482 0.287525 26.3355 0.642275 26.3355H14.9657L15.3852 27.3764H17.6148L18.0346 26.3355H32.358C32.7127 26.3355 33 26.0482 33 25.6935V9.89442V9.84602ZM17.6418 23.1571C17.6418 18.7167 17.6448 14.2761 17.6418 9.8357V8.44442C19.5355 7.7518 21.5273 7.40685 23.5193 7.40685C25.5111 7.40685 27.5031 7.75174 29.3969 8.44442V9.8357V19.4553L29.3934 23.1594C27.5006 22.4675 25.5098 22.1231 23.5193 22.1231C21.7152 22.1231 19.912 22.4092 18.1808 22.9771C18.0006 23.0351 17.8205 23.0934 17.6418 23.1571ZM15.3585 9.8357V19.3548L15.355 23.1594C13.4622 22.4675 11.4717 22.1231 9.48093 22.1231C7.67746 22.1231 5.87484 22.4089 4.1444 22.9763C3.96361 23.0345 3.78282 23.0931 3.60338 23.1571V9.8357V8.44442C5.49714 7.7518 7.4892 7.40685 9.48093 7.40685C11.4729 7.40685 13.4647 7.75174 15.3585 8.44442V9.8357Z" fill="#8A8A8A"/>
</svg>
