<svg width="33" height="27" viewBox="0 0 33 27" fill="none" xmlns="http://www.w3.org/2000/svg">
<path d="M11.1036 23.5873C10.6964 23.9945 10.6964 24.6545 11.1016 25.0594L11.306 25.2639C11.7129 25.6707 12.373 25.6707 12.7799 25.2639L13.01 25.0317L11.3355 23.3574L11.1036 23.5873Z" fill="#8A8A8A"/>
<path d="M8.25854 21.3602C7.85165 21.765 7.85165 22.4271 8.25854 22.8343L8.46099 23.0367C8.87033 23.4458 9.53052 23.4438 9.93535 23.0367C9.93535 23.0367 10.1348 22.837 10.4668 22.5049L10.4676 22.5039C10.4704 22.5012 10.4724 22.4994 10.4751 22.4966L8.7984 20.8203L8.25854 21.3602Z" fill="#8A8A8A"/>
<path d="M6.28814 18.3105L6.05598 18.5404C5.64915 18.9473 5.64915 19.6074 6.05398 20.0122L6.25843 20.2169C6.66577 20.6241 7.32564 20.6241 7.73279 20.2169L7.96238 19.985L6.28814 18.3105Z" fill="#8A8A8A"/>
<path d="M25.9165 0L21.6332 4.3317L18.4633 5.37352L17.4532 5.70636H17.4512L16.4411 6.03971H16.4389L9.00105 8.4859C8.8744 8.53024 8.75857 8.59972 8.66144 8.68835C8.61104 8.73263 8.56676 8.78129 8.52848 8.83588C8.48645 8.8888 8.45274 8.94564 8.42323 9.00687C8.31997 9.22614 8.29683 9.47287 8.35781 9.70503C8.36438 9.73223 8.37237 9.76188 8.38294 9.78914L8.4947 10.1033C8.54556 10.2428 8.62361 10.3692 8.73086 10.4769V10.479C8.77972 10.5273 8.83437 10.5716 8.88922 10.6074C8.97359 10.6622 9.06621 10.7066 9.16141 10.734C9.18455 10.7423 9.20975 10.7488 9.23495 10.7529C9.30694 10.7701 9.38048 10.7783 9.45647 10.7783C9.49224 10.7783 9.52595 10.776 9.56198 10.772C9.5935 10.77 9.62321 10.7657 9.65492 10.7594C9.66949 10.7574 9.68638 10.7528 9.70127 10.7488C9.73498 10.7423 9.76669 10.7317 9.79814 10.7214L13.0709 10.0107H13.0732C13.0963 10.0043 13.1173 9.99803 13.1407 9.99604C13.149 9.99378 13.1576 9.99178 13.1661 9.99178L13.1721 9.98952L18.8878 8.75087L21.4571 11.3194L21.8829 11.7474L21.8942 11.7588L21.8753 11.7548L26.6161 16.4933C27.5545 15.5064 28.1766 14.2833 28.4253 12.9418L28.6997 11.4302L33 7.08353L25.9165 0Z" fill="#8A8A8A"/>
<path d="M25.7239 17.3916L18.486 10.132L13.434 11.2275L13.3431 11.2486H13.3325L13.2925 11.2569L10.1313 11.9445C9.98372 11.9886 9.83194 12.0183 9.67809 12.0309C9.60409 12.0395 9.53055 12.0435 9.4565 12.0435C8.84496 12.0435 8.26914 11.8033 7.83711 11.3707C7.6007 11.1345 7.42171 10.8541 7.30338 10.5273L7.18955 10.209C6.9891 9.63748 7.02081 9.01963 7.28217 8.4607C7.54379 7.91433 8.00353 7.49893 8.57504 7.29448L8.58986 7.28791L8.60649 7.28391L11.8163 6.22798L14.4111 5.38325L14.3978 5.379L14.4144 5.37346L11.2471 4.33177L7.16287 0.082629L7.09087 0.0073478V0.00754105L7.08353 0L0 7.08359L4.18036 11.4302L4.45635 12.9418C4.71365 14.3444 5.38435 15.6182 6.39446 16.6282L7.15778 17.3896L8.83659 19.0681L9.69265 19.9264L11.3691 21.6029L12.2295 22.4612L13.9062 24.1378L15.5067 25.7383C15.7048 25.9366 15.9642 26.0379 16.2258 26.0379C16.2976 26.0379 16.3713 26.0293 16.441 26.0147C16.6263 25.9744 16.8016 25.8818 16.9471 25.7383L17.1813 25.5041C17.5796 25.1058 17.5796 24.4603 17.1813 24.062L12.8393 19.7199C12.5754 19.4561 12.6071 19.007 12.9339 18.7856C13.0331 18.7182 13.145 18.6887 13.2587 18.6887C13.4254 18.6887 13.5921 18.7562 13.7165 18.8786L13.9063 19.0682L14.7643 19.9265L17.2992 22.4613L18.976 24.1378L20.1019 25.264C20.3043 25.4685 20.5722 25.5697 20.8381 25.5697C21.1057 25.5697 21.3714 25.4685 21.5737 25.264L21.7785 25.0596C22.1856 24.6547 22.1856 23.9946 21.7785 23.5875L18.976 20.785L18.1154 19.9265L16.4412 18.2502L15.5806 17.3916L15.3908 17.2018C15.1546 16.9636 15.14 16.5779 15.3613 16.3438L15.3761 16.3287C15.49 16.2129 15.644 16.1496 15.8062 16.1496C15.8082 16.1496 15.8082 16.1496 15.8104 16.1496C15.9708 16.1496 16.1224 16.2129 16.2364 16.3266C16.2933 16.3835 16.3631 16.4533 16.4411 16.5311C16.6581 16.7506 16.9555 17.0457 17.2992 17.3916C17.7865 17.8787 18.3684 18.4631 18.9737 19.0681L19.834 19.9284C20.4309 20.5254 21.015 21.1074 21.5108 21.6029C22.3521 22.4446 22.9446 23.037 22.9446 23.037C23.1493 23.2417 23.4149 23.3429 23.6826 23.3429C23.9485 23.3429 24.2143 23.2417 24.4188 23.037L24.6232 22.8346C25.0281 22.4275 25.0281 21.7654 24.6232 21.3605L23.1871 19.9265L17.7147 14.4585C17.5797 14.3362 17.5757 14.1292 17.7021 14.0008L17.9111 13.7918C18.0289 13.6739 18.185 13.6148 18.3411 13.6148C18.4972 13.6148 18.6513 13.674 18.7691 13.7918L24.0457 19.0681L24.4462 19.4686C24.6908 19.7134 25.0197 19.8423 25.3446 19.8423C25.5765 19.8423 25.8066 19.7769 26.0005 19.6399C26.3504 19.3951 26.5402 18.988 26.5002 18.5537C26.4748 18.2647 26.3315 17.9988 26.1268 17.7944L25.7239 17.3916Z" fill="#8A8A8A"/>
</svg>
